#N canvas 1 23 761 459 10;
#N canvas 0 22 450 278 (subpatch) 0;
#X array sample 304640 float 2;
#X coords 0 1 304640 -1 200 140 1;
#X restore 394 36 graph;
#X obj 57 44 openpanel;
#X msg 57 77 read -resize \$1 sample;
#X obj 58 115 soundfiler;
#X floatatom 58 146 10 0 0 0 - - -;
#X obj 57 15 bng 15 250 50 0 empty empty empty 17 7 0 10 -262144 -1
-1;
#X obj 47 367 tabread4~ sample;
#X obj 48 406 dac~;
#X obj 44 293 phasor~;
#X obj 46 323 *~ 1;
#X obj 81 184 expr 44100 / $f1;
#X floatatom 82 211 10 0 0 0 - - -;
#X obj 48 246 *;
#X floatatom 27 197 5 0 0 0 - - -;
#X obj 201 128 hsl 128 15 -2 2 0 0 empty empty empty -2 -8 0 10 -262144
-1 -1 4800 1;
#X obj 119 263 hsl 128 15 0 1 0 0 empty empty empty -2 -8 0 10 -262144
-1 -1 0 1;
#X connect 1 0 2 0;
#X connect 2 0 3 0;
#X connect 3 0 4 0;
#X connect 4 0 9 1;
#X connect 4 0 10 0;
#X connect 5 0 1 0;
#X connect 6 0 7 0;
#X connect 6 0 7 1;
#X connect 8 0 9 0;
#X connect 9 0 6 0;
#X connect 10 0 11 0;
#X connect 11 0 12 1;
#X connect 12 0 8 0;
#X connect 13 0 12 0;
#X connect 14 0 13 0;
#X connect 15 0 8 1;
