#N canvas 0 23 761 459 10;
#X obj 27 16 adc~;
#X obj 30 142 vu 15 120 empty empty -1 -8 0 10 -66577 -1 1 0;
#X obj 28 70 env~;
#X obj 29 103 - 90;
#X obj 113 196 writesf~ 2;
#X msg 154 65 start;
#X msg 161 98 stop;
#X msg 142 28 open foo.wav;
#X obj 233 92 readsf~ 2;
#X obj 243 172 dac~;
#X msg 234 31 open foo.wav;
#X msg 254 65 start;
#X msg 301 64 stop;
#N canvas 0 22 450 278 (subpatch) 0;
#X array sample 304640 float 2;
#X coords 0 1 304640 -1 200 140 1;
#X restore 513 33 graph;
#X obj 365 49 openpanel;
#X msg 365 82 read -resize \$1 sample;
#X obj 366 120 soundfiler;
#X floatatom 366 151 10 0 0 0 - - -;
#X obj 365 20 bng 15 250 50 0 empty empty empty 17 7 0 10 -262144 -1
-1;
#X obj 369 270 tabplay~ sample;
#X obj 368 305 dac~;
#X obj 363 231 bng 15 250 50 0 empty empty empty 17 7 0 10 -262144
-1 -1;
#X msg 395 233 stop;
#X msg 431 224 150000 10000;
#X connect 0 0 2 0;
#X connect 0 0 4 0;
#X connect 2 0 3 0;
#X connect 3 0 1 0;
#X connect 5 0 4 0;
#X connect 6 0 4 0;
#X connect 7 0 4 0;
#X connect 8 0 9 0;
#X connect 8 1 9 1;
#X connect 10 0 8 0;
#X connect 11 0 8 0;
#X connect 12 0 8 0;
#X connect 14 0 15 0;
#X connect 15 0 16 0;
#X connect 16 0 17 0;
#X connect 18 0 14 0;
#X connect 19 0 20 0;
#X connect 19 0 20 1;
#X connect 21 0 19 0;
#X connect 22 0 19 0;
#X connect 23 0 19 0;
