#N canvas 3 57 1086 652 10;
#X declare -lib mrpeach;
#X obj 33 27 import mrpeach;
#X obj 19 140 udpreceive 12001;
#X obj 78 232 print;
#X obj 22 168 unpackOSC;
#X obj 187 452 udpsend;
#X msg 257 408 connect 127.0.0.1 12000;
#X obj 189 369 packOSC;
#X msg 189 298 /x \$1;
#X floatatom 189 233 5 0 0 0 - - -;
#X floatatom 270 277 5 0 0 0 - - -;
#X msg 270 302 /y \$1;
#X floatatom 350 272 5 0 0 0 - - -;
#X msg 350 297 /t \$1;
#X obj 188 131 osc~ 1;
#X obj 189 181 +~ 200;
#X obj 189 157 *~ 200;
#X obj 189 209 snapshot~;
#X obj 187 73 bng 15 250 50 0 empty empty empty 17 7 0 10 -262144 -1
-1;
#X obj 189 253 i;
#X floatatom 189 276 5 0 0 0 - - -;
#X obj 187 52 metro 30;
#X obj 188 30 tgl 15 0 empty empty empty 17 7 0 10 -262144 -1 -1 0
1;
#X floatatom 187 110 5 0 0 0 - - -;
#X floatatom 267 226 5 0 0 0 - - -;
#X obj 264 122 osc~ 1;
#X obj 265 172 +~ 200;
#X obj 265 148 *~ 200;
#X obj 267 199 snapshot~;
#X obj 269 249 i;
#X floatatom 265 99 5 0 0 0 - - -;
#X floatatom 350 225 5 0 0 0 - - -;
#X obj 349 125 osc~ 1;
#X obj 350 200 snapshot~;
#X obj 350 247 i;
#X floatatom 349 102 5 0 0 0 - - -;
#X obj 350 151 *~ 30;
#X obj 350 175 +~ 20;
#X floatatom 22 302 5 0 0 0 - - -;
#X floatatom 80 301 5 0 0 0 - - -;
#X obj 22 265 route /elpapu /mike;
#X obj 24 329 osc~;
#X obj 77 327 osc~;
#X obj 54 362 dac~;
#X connect 1 0 3 0;
#X connect 3 0 2 0;
#X connect 3 0 39 0;
#X connect 5 0 4 0;
#X connect 6 0 4 0;
#X connect 7 0 6 0;
#X connect 8 0 18 0;
#X connect 9 0 10 0;
#X connect 10 0 6 0;
#X connect 11 0 12 0;
#X connect 12 0 6 0;
#X connect 13 0 15 0;
#X connect 14 0 16 0;
#X connect 15 0 14 0;
#X connect 16 0 8 0;
#X connect 17 0 16 0;
#X connect 17 0 27 0;
#X connect 17 0 32 0;
#X connect 18 0 19 0;
#X connect 19 0 7 0;
#X connect 20 0 17 0;
#X connect 21 0 20 0;
#X connect 22 0 13 0;
#X connect 23 0 28 0;
#X connect 24 0 26 0;
#X connect 25 0 27 0;
#X connect 26 0 25 0;
#X connect 27 0 23 0;
#X connect 28 0 9 0;
#X connect 29 0 24 0;
#X connect 30 0 33 0;
#X connect 31 0 35 0;
#X connect 32 0 30 0;
#X connect 33 0 11 0;
#X connect 34 0 31 0;
#X connect 35 0 36 0;
#X connect 36 0 32 0;
#X connect 37 0 40 0;
#X connect 38 0 41 0;
#X connect 39 0 37 0;
#X connect 39 1 38 0;
#X connect 40 0 42 0;
#X connect 41 0 42 1;
