#N canvas 46 91 800 546 10;
#X obj 51 44 adc~;
#X obj 53 143 vu 15 120 empty empty -1 -8 0 10 -66577 -1 1 0;
#X obj 51 71 env~;
#X obj 52 104 - 90;
#X obj 142 454 line~;
#X obj 126 480 *~;
#X msg 142 430 \$1 20;
#X obj 143 403 hsl 128 15 0 1 0 0 empty empty empty -2 -8 0 10 -262144
-1 -1 0 1;
#X obj 127 537 dac~;
#X text 126 89 comment;
#X obj 469 229 unpack;
#X floatatom 469 279 0 0 0 0 - - -;
#X floatatom 483 256 0 0 0 0 - - -;
#X obj 469 189 route 1 2 3 4;
#X obj 552 229 unpack;
#X floatatom 552 279 0 0 0 0 - - -;
#X floatatom 566 256 0 0 0 0 - - -;
#X obj 636 229 unpack;
#X floatatom 636 279 0 0 0 0 - - -;
#X floatatom 650 256 0 0 0 0 - - -;
#X obj 327 229 unpack;
#X floatatom 327 279 0 0 0 0 - - -;
#X floatatom 341 256 0 0 0 0 - - -;
#X floatatom 404 279 0 0 0 0 - - -;
#X obj 267 128 fiddle~ 1024 1 20 3;
#X floatatom 218 171 5 0 0 0 - - -;
#X obj 292 189 bng 15 250 50 0 empty empty empty 17 7 0 10 -262144
-1 -1;
#X obj 144 231 noise~;
#X obj 149 299 bp~;
#X floatatom 166 264 5 0 0 0 - - -;
#X floatatom 208 263 5 0 0 0 - - -;
#X obj 203 217 mtof;
#X obj 214 195 + 24;
#X floatatom 95 129 5 0 0 0 - - -;
#X text 476 303;
#X text 404 301;
#X text 327 301;
#X connect 0 0 2 0;
#X connect 0 0 24 0;
#X connect 2 0 3 0;
#X connect 3 0 1 0;
#X connect 3 0 33 0;
#X connect 4 0 5 1;
#X connect 5 0 8 0;
#X connect 5 0 8 1;
#X connect 6 0 4 0;
#X connect 7 0 6 0;
#X connect 10 0 11 0;
#X connect 10 1 12 0;
#X connect 13 0 10 0;
#X connect 13 1 14 0;
#X connect 13 2 17 0;
#X connect 14 0 15 0;
#X connect 14 1 16 0;
#X connect 17 0 18 0;
#X connect 17 1 19 0;
#X connect 20 0 21 0;
#X connect 20 1 22 0;
#X connect 24 0 25 0;
#X connect 24 1 26 0;
#X connect 24 2 20 0;
#X connect 24 3 23 0;
#X connect 24 4 13 0;
#X connect 25 0 32 0;
#X connect 27 0 28 0;
#X connect 28 0 5 0;
#X connect 29 0 28 1;
#X connect 30 0 28 2;
#X connect 31 0 29 0;
#X connect 32 0 31 0;
