#N canvas 44 50 1257 706 10;
#N canvas 0 22 450 278 (subpatch) 0;
#X array sample 176512 float 2;
#X coords 0 1 176512 -1 200 140 1;
#X restore 370 938 graph;
#X obj 393 540 openpanel;
#X msg 393 573 read -resize \$1 sample;
#X obj 394 611 soundfiler;
#X floatatom 394 642 10 0 0 0 - - -;
#X obj 393 511 bng 15 250 50 0 empty empty empty 17 7 0 10 -262144
-1 -1;
#X obj 383 863 tabread4~ sample;
#X obj 406 918 dac~;
#X obj 380 789 phasor~;
#X obj 382 819 *~ 1;
#X obj 417 680 expr 44100 / $f1;
#X floatatom 418 707 10 0 0 0 - - -;
#X obj 384 742 *;
#X floatatom 363 693 5 0 0 0 - - -;
#X obj 428 757 hsl 128 15 0 1 0 0 empty empty empty -2 -8 0 10 -262144
-1 -1 0 1;
#X obj 589 57 ctlin 13;
#X floatatom 589 91 5 0 0 0 - - -;
#X floatatom 660 88 5 0 0 0 - - -;
#X floatatom 729 89 5 0 0 0 - - -;
#X floatatom 788 90 5 0 0 0 - - -;
#X floatatom 844 87 5 0 0 0 - - -;
#X floatatom 904 88 5 0 0 0 - - -;
#X floatatom 973 89 5 0 0 0 - - -;
#X floatatom 1041 85 5 0 0 0 - - -;
#X obj 660 54 ctlin 14;
#X obj 729 56 ctlin 15;
#X obj 788 56 ctlin 16;
#X obj 844 53 ctlin 17;
#X obj 904 54 ctlin 18;
#X obj 973 55 ctlin 19;
#X obj 1041 51 ctlin 20;
#X obj 588 118 / 127;
#X floatatom 587 142 5 0 0 0 - - -;
#X obj 662 116 / 127;
#X floatatom 666 145 5 0 0 0 - - -;
#X obj 729 120 / 127;
#X floatatom 733 149 5 0 0 0 - - -;
#X obj 792 122 / 127;
#X floatatom 796 151 5 0 0 0 - - -;
#X obj 844 123 / 127;
#X floatatom 848 152 5 0 0 0 - - -;
#X obj 907 125 / 127;
#X floatatom 911 154 5 0 0 0 - - -;
#X obj 974 129 / 127;
#X floatatom 978 158 5 0 0 0 - - -;
#X obj 1046 126 / 127;
#X floatatom 1050 155 5 0 0 0 - - -;
#X obj 541 196 metro 250;
#X obj 538 171 tgl 15 0 empty empty empty 17 7 0 10 -262144 -1 -1 0
1;
#X obj 544 239 counter 7;
#X obj 543 268 select 0 1 2 3 4 5 6 7;
#X obj 543 332 f;
#X floatatom 678 419 5 0 0 0 - - -;
#X obj 573 332 f;
#X obj 605 333 f;
#X obj 636 332 f;
#X obj 667 330 f;
#X obj 699 329 f;
#X obj 767 329 f;
#X obj 732 329 f;
#X floatatom 691 228 5 0 0 0 - - -;
#X obj 691 182 ctlin 77;
#X obj 692 208 * 3;
#X obj 115 73 hid;
#X msg 203 28 refresh;
#X msg 214 49 print;
#X msg 151 27 open 3;
#X obj 116 39 tgl 15 0 empty empty empty 17 7 0 10 -262144 -1 -1 0
1;
#X obj 115 108 route abs;
#X obj 115 174 route abs_x abs_y abs_rz;
#X floatatom 113 212 5 0 0 0 - - -;
#X floatatom 167 210 5 0 0 0 - - -;
#X floatatom 211 207 5 0 0 0 - - -;
#X obj 167 142 print;
#X obj 108 258 moses 500;
#X floatatom 108 295 5 0 0 0 - - -;
#X floatatom 277 292 5 0 0 0 - - -;
#X obj 225 257 moses 523;
#X obj 110 327 / 250;
#X floatatom 112 398 5 0 0 0 - - -;
#X obj 110 349 * -1;
#X obj 112 376 + 2;
#X obj 122 428 * -1;
#X floatatom 122 455 5 0 0 0 - - -;
#X obj 277 318 - 523;
#X floatatom 280 345 5 0 0 0 - - -;
#X obj 280 372 / 250;
#X floatatom 280 401 5 0 0 0 - - -;
#X obj 503 881 *~;
#X msg 209 290 1;
#X msg 168 290 1;
#X msg 240 290 0;
#X msg 140 290 0;
#X obj 192 335 &&;
#X obj 193 371 select 1;
#X msg 193 412 0;
#X connect 1 0 2 0;
#X connect 2 0 3 0;
#X connect 3 0 4 0;
#X connect 4 0 9 1;
#X connect 4 0 10 0;
#X connect 5 0 1 0;
#X connect 6 0 88 0;
#X connect 8 0 9 0;
#X connect 9 0 6 0;
#X connect 10 0 11 0;
#X connect 11 0 12 1;
#X connect 12 0 8 0;
#X connect 13 0 12 0;
#X connect 14 0 8 1;
#X connect 15 0 16 0;
#X connect 16 0 31 0;
#X connect 17 0 33 0;
#X connect 18 0 35 0;
#X connect 19 0 37 0;
#X connect 20 0 39 0;
#X connect 21 0 41 0;
#X connect 22 0 43 0;
#X connect 23 0 45 0;
#X connect 24 0 17 0;
#X connect 25 0 18 0;
#X connect 26 0 19 0;
#X connect 27 0 20 0;
#X connect 28 0 21 0;
#X connect 29 0 22 0;
#X connect 30 0 23 0;
#X connect 31 0 32 0;
#X connect 32 0 51 1;
#X connect 33 0 34 0;
#X connect 34 0 53 1;
#X connect 35 0 36 0;
#X connect 36 0 54 1;
#X connect 37 0 38 0;
#X connect 38 0 55 1;
#X connect 39 0 40 0;
#X connect 40 0 56 1;
#X connect 41 0 42 0;
#X connect 42 0 57 1;
#X connect 43 0 44 0;
#X connect 44 0 59 1;
#X connect 45 0 46 0;
#X connect 46 0 58 1;
#X connect 47 0 49 0;
#X connect 48 0 47 0;
#X connect 49 0 50 0;
#X connect 50 0 51 0;
#X connect 50 1 53 0;
#X connect 50 2 54 0;
#X connect 50 3 55 0;
#X connect 50 4 56 0;
#X connect 50 5 57 0;
#X connect 50 6 58 0;
#X connect 50 7 59 0;
#X connect 51 0 52 0;
#X connect 52 0 14 0;
#X connect 53 0 52 0;
#X connect 54 0 52 0;
#X connect 55 0 52 0;
#X connect 56 0 52 0;
#X connect 57 0 52 0;
#X connect 58 0 52 0;
#X connect 59 0 52 0;
#X connect 60 0 47 1;
#X connect 61 0 62 0;
#X connect 62 0 60 0;
#X connect 63 0 68 0;
#X connect 64 0 63 0;
#X connect 65 0 63 0;
#X connect 66 0 63 0;
#X connect 67 0 63 0;
#X connect 68 0 69 0;
#X connect 68 1 73 0;
#X connect 69 0 70 0;
#X connect 69 1 71 0;
#X connect 69 2 72 0;
#X connect 70 0 74 0;
#X connect 70 0 77 0;
#X connect 74 0 75 0;
#X connect 74 0 92 0;
#X connect 74 1 90 0;
#X connect 75 0 78 0;
#X connect 76 0 84 0;
#X connect 77 0 89 0;
#X connect 77 1 76 0;
#X connect 77 1 91 0;
#X connect 78 0 80 0;
#X connect 79 0 82 0;
#X connect 80 0 81 0;
#X connect 81 0 79 0;
#X connect 82 0 83 0;
#X connect 83 0 13 0;
#X connect 84 0 85 0;
#X connect 85 0 86 0;
#X connect 86 0 87 0;
#X connect 87 0 13 0;
#X connect 88 0 7 1;
#X connect 88 0 7 0;
#X connect 89 0 93 1;
#X connect 90 0 93 0;
#X connect 91 0 93 1;
#X connect 92 0 93 0;
#X connect 93 0 94 0;
#X connect 94 0 95 0;
#X connect 95 0 13 0;
