#N canvas 82 25 920 591 10;
#X obj 732 33 notein;
#X obj 713 315 noise~;
#X obj 713 374 *~;
#X obj 729 344 line~;
#X obj 722 220 bng 15 250 50 0 empty empty empty 17 7 0 10 -262144
-1 -1;
#X msg 771 281 0 20;
#X obj 760 164 click~;
#X obj 760 135 bng 15 250 50 0 empty empty empty 17 7 0 10 -262144
-1 -1;
#X obj 757 191 *~ 50;
#X msg 724 282 0.5 20;
#X obj 727 98 select 64 65;
#X obj 733 70 stripnote;
#X obj 735 247 delay 50;
#X obj 26 12 notein;
#X floatatom 24 37 5 0 0 0 - - -;
#X floatatom 65 38 5 0 0 0 - - -;
#X obj 23 66 mtof;
#X floatatom 22 94 5 0 0 0 - - -;
#X obj 20 118 phasor~;
#X obj 35 193 *~;
#X obj 65 144 line~;
#X obj 72 71 / 127;
#X msg 74 103 \$1 20;
#X obj 340 98 poly 4;
#X obj 340 55 notein;
#X obj 339 142 pack 0 0 0;
#X obj 337 183 route 1 2 3 4;
#X obj 329 230 unpack 0 0;
#X floatatom 326 269 5 0 0 0 - - -;
#X floatatom 367 270 5 0 0 0 - - -;
#X obj 325 298 mtof;
#X floatatom 324 326 5 0 0 0 - - -;
#X obj 322 350 phasor~;
#X obj 337 425 *~;
#X obj 367 376 line~;
#X obj 374 303 / 127;
#X msg 376 335 \$1 20;
#X obj 428 231 unpack 0 0;
#X floatatom 425 270 5 0 0 0 - - -;
#X floatatom 466 271 5 0 0 0 - - -;
#X obj 424 299 mtof;
#X floatatom 423 327 5 0 0 0 - - -;
#X obj 421 351 phasor~;
#X obj 436 426 *~;
#X obj 466 377 line~;
#X obj 473 304 / 127;
#X msg 475 336 \$1 20;
#X obj 531 227 unpack 0 0;
#X floatatom 528 266 5 0 0 0 - - -;
#X floatatom 569 267 5 0 0 0 - - -;
#X obj 527 295 mtof;
#X floatatom 526 323 5 0 0 0 - - -;
#X obj 524 347 phasor~;
#X obj 539 422 *~;
#X obj 569 373 line~;
#X obj 576 300 / 127;
#X msg 578 332 \$1 20;
#X obj 231 235 unpack 0 0;
#X floatatom 228 274 5 0 0 0 - - -;
#X floatatom 269 275 5 0 0 0 - - -;
#X obj 227 303 mtof;
#X floatatom 226 331 5 0 0 0 - - -;
#X obj 224 355 phasor~;
#X obj 239 430 *~;
#X obj 269 381 line~;
#X obj 276 308 / 127;
#X msg 278 340 \$1 20;
#X obj 362 499 dac~;
#X obj 27 237 dac~;
#X obj 749 448 dac~;
#X connect 0 0 11 0;
#X connect 0 1 11 1;
#X connect 1 0 2 0;
#X connect 2 0 69 0;
#X connect 2 0 69 1;
#X connect 3 0 2 1;
#X connect 4 0 9 0;
#X connect 4 0 12 0;
#X connect 5 0 3 0;
#X connect 6 0 8 0;
#X connect 7 0 6 0;
#X connect 8 0 69 0;
#X connect 8 0 69 1;
#X connect 9 0 3 0;
#X connect 10 0 4 0;
#X connect 10 1 7 0;
#X connect 11 0 10 0;
#X connect 12 0 5 0;
#X connect 13 0 14 0;
#X connect 13 1 15 0;
#X connect 14 0 16 0;
#X connect 15 0 21 0;
#X connect 16 0 17 0;
#X connect 17 0 18 0;
#X connect 18 0 19 0;
#X connect 19 0 68 0;
#X connect 19 0 68 1;
#X connect 20 0 19 1;
#X connect 21 0 22 0;
#X connect 22 0 20 0;
#X connect 23 0 25 0;
#X connect 23 1 25 1;
#X connect 23 2 25 2;
#X connect 24 0 23 0;
#X connect 24 1 23 1;
#X connect 25 0 26 0;
#X connect 26 0 57 0;
#X connect 26 1 27 0;
#X connect 26 2 37 0;
#X connect 26 3 47 0;
#X connect 27 0 28 0;
#X connect 27 1 29 0;
#X connect 28 0 30 0;
#X connect 29 0 35 0;
#X connect 30 0 31 0;
#X connect 31 0 32 0;
#X connect 32 0 33 0;
#X connect 33 0 67 0;
#X connect 33 0 67 1;
#X connect 34 0 33 1;
#X connect 35 0 36 0;
#X connect 36 0 34 0;
#X connect 37 0 38 0;
#X connect 37 1 39 0;
#X connect 38 0 40 0;
#X connect 39 0 45 0;
#X connect 40 0 41 0;
#X connect 41 0 42 0;
#X connect 42 0 43 0;
#X connect 43 0 67 0;
#X connect 43 0 67 1;
#X connect 44 0 43 1;
#X connect 45 0 46 0;
#X connect 46 0 44 0;
#X connect 47 0 48 0;
#X connect 47 1 49 0;
#X connect 48 0 50 0;
#X connect 49 0 55 0;
#X connect 50 0 51 0;
#X connect 51 0 52 0;
#X connect 52 0 53 0;
#X connect 53 0 67 0;
#X connect 53 0 67 1;
#X connect 54 0 53 1;
#X connect 55 0 56 0;
#X connect 56 0 54 0;
#X connect 57 0 58 0;
#X connect 57 1 59 0;
#X connect 58 0 60 0;
#X connect 59 0 65 0;
#X connect 60 0 61 0;
#X connect 61 0 62 0;
#X connect 62 0 63 0;
#X connect 63 0 67 0;
#X connect 63 0 67 1;
#X connect 64 0 63 1;
#X connect 65 0 66 0;
#X connect 66 0 64 0;
