#N canvas 83 62 1065 711 10;
#X obj -73 66 osc~ 220;
#X floatatom -72 38 5 0 0 0 - - -;
#X obj -62 536 dac~;
#X obj -74 197 *~;
#X obj -59 168 line~;
#X msg -61 145 \$1 20;
#X floatatom -60 123 5 0 0 0 - - -;
#X obj -56 104 hsl 128 15 0 1 0 0 empty empty empty -2 -8 0 10 -262144
-1 -1 3500 1;
#X obj 23 507 spectrogram~;
#X obj -43 482 *~;
#X obj -36 455 line~;
#X msg -36 429 \$1 20;
#X floatatom -35 403 5 0 0 0 - - -;
#X obj -32 379 hsl 128 15 0 1 0 0 empty empty empty -2 -8 0 10 -262144
-1 -1 9400 1;
#X obj -74 233 +~;
#X obj 77 60 osc~ 220;
#X floatatom 78 32 5 0 0 0 - - -;
#X obj 79 191 *~;
#X obj 94 162 line~;
#X msg 92 139 \$1 20;
#X floatatom 93 117 5 0 0 0 - - -;
#X obj 97 98 hsl 128 15 0 1 0 0 empty empty empty -2 -8 0 10 -262144
-1 -1 6200 1;
#X obj 294 95 osc~;
#X obj 355 96 osc~;
#X floatatom 294 61 5 0 0 0 - - -;
#X floatatom 356 59 5 0 0 0 - - -;
#X obj 293 143 *~;
#X obj 290 259 *~;
#X obj 305 230 line~;
#X msg 303 207 \$1 20;
#X floatatom 304 185 5 0 0 0 - - -;
#X obj 308 166 hsl 128 15 0 1 0 0 empty empty empty -2 -8 0 10 -262144
-1 -1 8500 1;
#X text -76 10 sintesis aditiva;
#X text 293 30 modulacion de la amplitud;
#X text 561 11 modulacion de la freq;
#X obj 575 137 osc~;
#X obj 572 57 osc~;
#X floatatom 572 34 5 0 0 0 - - -;
#X obj 574 259 *~;
#X obj 589 230 line~;
#X msg 587 207 \$1 20;
#X floatatom 588 185 5 0 0 0 - - -;
#X obj 592 166 hsl 128 15 0 1 0 0 empty empty empty -2 -8 0 10 -262144
-1 -1 6500 1;
#X obj 574 83 *~ 0;
#X floatatom 611 81 5 0 0 0 - - -;
#X floatatom 612 113 5 0 0 0 - - -;
#X obj 575 114 +~ 0;
#X obj -76 351 *~;
#X obj -61 322 line~;
#X msg -63 299 \$1 20;
#X floatatom -62 277 5 0 0 0 - - -;
#X obj -58 258 hsl 128 15 0 1 0 0 empty empty empty -2 -8 0 10 -262144
-1 -1 8600 1;
#X connect 0 0 3 0;
#X connect 1 0 0 0;
#X connect 3 0 14 0;
#X connect 4 0 3 1;
#X connect 5 0 4 0;
#X connect 6 0 5 0;
#X connect 7 0 6 0;
#X connect 9 0 2 0;
#X connect 9 0 2 1;
#X connect 9 0 8 0;
#X connect 10 0 9 1;
#X connect 11 0 10 0;
#X connect 12 0 11 0;
#X connect 13 0 12 0;
#X connect 14 0 47 0;
#X connect 15 0 17 0;
#X connect 16 0 15 0;
#X connect 17 0 14 1;
#X connect 18 0 17 1;
#X connect 19 0 18 0;
#X connect 20 0 19 0;
#X connect 21 0 20 0;
#X connect 22 0 26 0;
#X connect 23 0 26 1;
#X connect 24 0 22 0;
#X connect 25 0 23 0;
#X connect 26 0 27 0;
#X connect 27 0 9 0;
#X connect 28 0 27 1;
#X connect 29 0 28 0;
#X connect 30 0 29 0;
#X connect 31 0 30 0;
#X connect 35 0 38 0;
#X connect 36 0 43 0;
#X connect 37 0 36 0;
#X connect 38 0 9 0;
#X connect 39 0 38 1;
#X connect 40 0 39 0;
#X connect 41 0 40 0;
#X connect 42 0 41 0;
#X connect 43 0 46 0;
#X connect 44 0 43 1;
#X connect 45 0 46 1;
#X connect 46 0 35 0;
#X connect 47 0 9 0;
#X connect 48 0 47 1;
#X connect 49 0 48 0;
#X connect 50 0 49 0;
#X connect 51 0 50 0;
